<svg width="65" height="63" viewBox="0 0 65 63" fill="none" xmlns="http://www.w3.org/2000/svg">
<rect width="65" height="63" fill="#2F304C"/>
<path d="M48.97 19.5347L41.1366 16.0097H41.0387H40.8037H40.5687H40.0791H39.8833H39.6287H39.5308L32.5004 19.1626L25.47 16.0097H25.3721L25.1371 15.8334H24.9021H24.4125H24.2166H23.9621L16.1287 19.3584C15.738 19.5081 15.4055 19.7791 15.18 20.1315C14.9544 20.4839 14.8477 20.8993 14.8754 21.3168V45.2084C14.8759 45.5361 14.9587 45.8584 15.1161 46.1458C15.2735 46.4332 15.5004 46.6765 15.7762 46.8534C16.0914 47.057 16.4585 47.1658 16.8337 47.1668C17.1108 47.1655 17.3845 47.1054 17.6366 46.9905L24.6671 43.8376L31.6975 46.9905H31.7954C32.0161 47.0937 32.2568 47.1472 32.5004 47.1472C32.744 47.1472 32.9847 47.0937 33.2054 46.9905H33.3033L40.3337 43.8376L47.3641 46.9905C47.6163 47.1054 47.89 47.1655 48.1671 47.1668C48.5423 47.1658 48.9094 47.057 49.2246 46.8534C49.5003 46.6765 49.7273 46.4332 49.8847 46.1458C50.0421 45.8584 50.1248 45.5361 50.1254 45.2084V21.3168C50.1246 20.9401 50.0152 20.5716 49.8103 20.2555C49.6053 19.9394 49.3136 19.6891 48.97 19.5347ZM26.6254 20.8272L30.5421 22.5701V42.1534L26.6254 40.4105V20.8272ZM46.2087 42.173L42.2921 40.4301V20.8468L46.2087 22.5897V42.173Z" fill="white"/>
</svg>
