<svg width="554" height="264" viewBox="0 0 554 264" fill="none" xmlns="http://www.w3.org/2000/svg">
<path d="M256.723 103.95V91.2727H316.453V103.95H294.187V164H278.988V103.95H256.723ZM320.341 164V109.455H335.007V118.972H335.576C336.57 115.586 338.239 113.029 340.583 111.301C342.926 109.549 345.625 108.673 348.679 108.673C349.437 108.673 350.254 108.721 351.129 108.815C352.005 108.91 352.775 109.04 353.438 109.206V122.629C352.727 122.416 351.745 122.227 350.49 122.061C349.236 121.895 348.087 121.812 347.046 121.812C344.82 121.812 342.832 122.298 341.08 123.268C339.352 124.215 337.978 125.541 336.96 127.246C335.966 128.95 335.469 130.915 335.469 133.141V164H320.341ZM383.365 165.065C377.849 165.065 373.078 163.893 369.054 161.55C365.053 159.182 361.963 155.892 359.785 151.678C357.607 147.44 356.518 142.527 356.518 136.94C356.518 131.306 357.607 126.382 359.785 122.168C361.963 117.93 365.053 114.639 369.054 112.295C373.078 109.928 377.849 108.744 383.365 108.744C388.881 108.744 393.64 109.928 397.64 112.295C401.665 114.639 404.766 117.93 406.944 122.168C409.123 126.382 410.212 131.306 410.212 136.94C410.212 142.527 409.123 147.44 406.944 151.678C404.766 155.892 401.665 159.182 397.64 161.55C393.64 163.893 388.881 165.065 383.365 165.065ZM383.436 153.347C385.945 153.347 388.041 152.636 389.721 151.216C391.402 149.772 392.669 147.807 393.521 145.321C394.397 142.835 394.835 140.006 394.835 136.834C394.835 133.661 394.397 130.832 393.521 128.347C392.669 125.861 391.402 123.896 389.721 122.452C388.041 121.008 385.945 120.286 383.436 120.286C380.903 120.286 378.772 121.008 377.044 122.452C375.339 123.896 374.049 125.861 373.173 128.347C372.321 130.832 371.895 133.661 371.895 136.834C371.895 140.006 372.321 142.835 373.173 145.321C374.049 147.807 375.339 149.772 377.044 151.216C378.772 152.636 380.903 153.347 383.436 153.347ZM449.061 109.455V120.818H416.213V109.455H449.061ZM423.67 96.3864H438.798V147.239C438.798 148.635 439.011 149.724 439.437 150.506C439.864 151.263 440.455 151.796 441.213 152.104C441.994 152.411 442.894 152.565 443.912 152.565C444.622 152.565 445.332 152.506 446.042 152.388C446.753 152.246 447.297 152.139 447.676 152.068L450.055 163.325C449.298 163.562 448.232 163.834 446.859 164.142C445.486 164.473 443.817 164.675 441.852 164.746C438.206 164.888 435.01 164.402 432.264 163.29C429.542 162.177 427.423 160.449 425.908 158.105C424.392 155.761 423.647 152.802 423.67 149.227V96.3864ZM458.915 164V109.455H473.582V118.972H474.15C475.144 115.586 476.813 113.029 479.157 111.301C481.501 109.549 484.199 108.673 487.253 108.673C488.011 108.673 488.828 108.721 489.704 108.815C490.58 108.91 491.349 109.04 492.012 109.206V122.629C491.302 122.416 490.319 122.227 489.064 122.061C487.81 121.895 486.662 121.812 485.62 121.812C483.395 121.812 481.406 122.298 479.654 123.268C477.926 124.215 476.553 125.541 475.535 127.246C474.54 128.95 474.043 130.915 474.043 133.141V164H458.915ZM521.939 165.065C516.423 165.065 511.653 163.893 507.628 161.55C503.627 159.182 500.538 155.892 498.36 151.678C496.182 147.44 495.093 142.527 495.093 136.94C495.093 131.306 496.182 126.382 498.36 122.168C500.538 117.93 503.627 114.639 507.628 112.295C511.653 109.928 516.423 108.744 521.939 108.744C527.455 108.744 532.214 109.928 536.215 112.295C540.239 114.639 543.341 117.93 545.519 122.168C547.697 126.382 548.786 131.306 548.786 136.94C548.786 142.527 547.697 147.44 545.519 151.678C543.341 155.892 540.239 159.182 536.215 161.55C532.214 163.893 527.455 165.065 521.939 165.065ZM522.01 153.347C524.52 153.347 526.615 152.636 528.296 151.216C529.977 149.772 531.243 147.807 532.095 145.321C532.971 142.835 533.409 140.006 533.409 136.834C533.409 133.661 532.971 130.832 532.095 128.347C531.243 125.861 529.977 123.896 528.296 122.452C526.615 121.008 524.52 120.286 522.01 120.286C519.477 120.286 517.346 121.008 515.618 122.452C513.914 123.896 512.623 125.861 511.747 128.347C510.895 130.832 510.469 133.661 510.469 136.834C510.469 140.006 510.895 142.835 511.747 145.321C512.623 147.807 513.914 149.772 515.618 151.216C517.346 152.636 519.477 153.347 522.01 153.347Z" fill="#2F304D"/>
<g filter="url(#filter0_d_2256_1356)">
<rect x="26" y="26" width="197.171" height="203.471" rx="20" fill="#B72684" shape-rendering="crispEdges"/>
<path d="M84 131.991V115H164.052V131.991H134.211V212.471H113.841V131.991H84Z" fill="white"/>
<path d="M124.586 186.171C156.942 186.171 183.171 159.942 183.171 127.586C183.171 95.2297 156.942 69 124.586 69C92.2297 69 66 95.2297 66 127.586C66 159.942 92.2297 186.171 124.586 186.171Z" stroke="white" stroke-width="10" stroke-linecap="round" stroke-linejoin="round"/>
<path d="M124.506 138.844C131.697 138.844 137.525 133.015 137.525 125.824C137.525 118.634 131.697 112.805 124.506 112.805C117.316 112.805 111.487 118.634 111.487 125.824C111.487 133.015 117.316 138.844 124.506 138.844Z" stroke="white" stroke-width="10" stroke-linecap="round" stroke-linejoin="round"/>
<path d="M124.506 138.844V184.41M111.487 125.824L67.5479 112.805M137.525 125.824L181.465 112.805" stroke="white" stroke-width="10" stroke-linecap="round" stroke-linejoin="round"/>
</g>
<defs>
<filter id="filter0_d_2256_1356" x="0" y="0" width="257.171" height="263.472" filterUnits="userSpaceOnUse" color-interpolation-filters="sRGB">
<feFlood flood-opacity="0" result="BackgroundImageFix"/>
<feColorMatrix in="SourceAlpha" type="matrix" values="0 0 0 0 0 0 0 0 0 0 0 0 0 0 0 0 0 0 127 0" result="hardAlpha"/>
<feOffset dx="4" dy="4"/>
<feGaussianBlur stdDeviation="15"/>
<feComposite in2="hardAlpha" operator="out"/>
<feColorMatrix type="matrix" values="0 0 0 0 0.2875 0 0 0 0 0.2875 0 0 0 0 0.2875 0 0 0 0.25 0"/>
<feBlend mode="normal" in2="BackgroundImageFix" result="effect1_dropShadow_2256_1356"/>
<feBlend mode="normal" in="SourceGraphic" in2="effect1_dropShadow_2256_1356" result="shape"/>
</filter>
</defs>
</svg>
