<svg width="65" height="63" viewBox="0 0 65 63" fill="none" xmlns="http://www.w3.org/2000/svg">
<rect width="65" height="63" fill="#2F304C"/>
<path d="M46.2077 17.7915H18.791C17.2329 17.7915 15.7385 18.4105 14.6368 19.5123C13.535 20.614 12.916 22.1084 12.916 23.6665V39.3332C12.916 40.8913 13.535 42.3856 14.6368 43.4874C15.7385 44.5892 17.2329 45.2082 18.791 45.2082H46.2077C47.7658 45.2082 49.2602 44.5892 50.3619 43.4874C51.4637 42.3856 52.0827 40.8913 52.0827 39.3332V23.6665C52.0827 22.1084 51.4637 20.614 50.3619 19.5123C49.2602 18.4105 47.7658 17.7915 46.2077 17.7915ZM30.541 37.3748H22.7077C22.1883 37.3748 21.6902 37.1685 21.3229 36.8013C20.9557 36.434 20.7493 35.9359 20.7493 35.4165C20.7493 34.8971 20.9557 34.399 21.3229 34.0318C21.6902 33.6645 22.1883 33.4582 22.7077 33.4582H30.541C31.0604 33.4582 31.5585 33.6645 31.9258 34.0318C32.293 34.399 32.4993 34.8971 32.4993 35.4165C32.4993 35.9359 32.293 36.434 31.9258 36.8013C31.5585 37.1685 31.0604 37.3748 30.541 37.3748ZM42.291 37.3748H38.3743C37.855 37.3748 37.3569 37.1685 36.9896 36.8013C36.6223 36.434 36.416 35.9359 36.416 35.4165C36.416 34.8971 36.6223 34.399 36.9896 34.0318C37.3569 33.6645 37.855 33.4582 38.3743 33.4582H42.291C42.8104 33.4582 43.3085 33.6645 43.6758 34.0318C44.043 34.399 44.2493 34.8971 44.2493 35.4165C44.2493 35.9359 44.043 36.434 43.6758 36.8013C43.3085 37.1685 42.8104 37.3748 42.291 37.3748ZM48.166 25.6248H16.8327V23.6665C16.8327 23.1471 17.039 22.649 17.4063 22.2818C17.7735 21.9145 18.2716 21.7082 18.791 21.7082H46.2077C46.7271 21.7082 47.2252 21.9145 47.5924 22.2818C47.9597 22.649 48.166 23.1471 48.166 23.6665V25.6248Z" fill="white"/>
</svg>
