<?xml version="1.0" standalone="no"?>
<!DOCTYPE svg PUBLIC "-//W3C//DTD SVG 20010904//EN"
 "http://www.w3.org/TR/2001/REC-SVG-20010904/DTD/svg10.dtd">
<svg version="1.0" xmlns="http://www.w3.org/2000/svg"
 width="300.000000pt" height="400.000000pt" viewBox="0 0 300.000000 400.000000"
 preserveAspectRatio="xMidYMid meet">
<metadata>
Created by potrace 1.10, written by Peter Selinger 2001-2011
</metadata>
<g transform="translate(0.000000,400.000000) scale(0.100000,-0.100000)"
fill="#000000" stroke="none">
<path d="M570 3987 c0 -9 9 -59 21 -110 11 -50 23 -112 26 -137 3 -25 10 -53
15 -63 5 -10 13 -39 18 -65 20 -113 52 -248 62 -257 7 -7 8 -4 4 10 -10 35
-63 285 -96 450 -30 151 -49 216 -50 172z"/>
<path d="M980 3985 c-7 -9 -8 -15 -2 -15 6 0 10 -77 11 -212 1 -117 4 -244 6
-283 20 -300 27 -389 36 -455 5 -41 12 -88 14 -105 4 -30 18 -125 20 -135 9
-39 26 -120 28 -135 2 -11 9 -33 15 -48 7 -16 12 -36 12 -46 0 -9 4 -21 8 -26
5 -6 19 -39 32 -75 13 -36 41 -92 62 -124 44 -68 48 -93 16 -99 -13 -2 -5 -5
18 -6 40 -1 74 -25 87 -61 4 -12 6 -12 6 -1 1 8 12 1 29 -17 15 -16 37 -33 50
-37 18 -5 12 3 -22 35 -50 47 -57 75 -35 154 8 30 8 41 -2 47 -21 13 -28 -10
-23 -81 l4 -65 -39 44 c-21 24 -59 82 -84 130 -97 186 -154 439 -187 841 -9
103 -29 617 -30 753 0 39 -10 47 -30 22z"/>
<path d="M1610 3943 c-7 -32 -17 -69 -23 -83 -12 -29 -14 -35 -16 -52 -1 -8
-7 -6 -16 6 -14 18 -14 18 -14 0 1 -11 -2 -37 -5 -59 -5 -31 -4 -36 4 -20 8
16 9 12 5 -20 -11 -85 -34 -167 -46 -159 -5 3 -9 -2 -9 -11 0 -10 5 -14 13
-10 6 4 4 0 -7 -9 -13 -11 -17 -24 -14 -50 2 -19 1 -33 -3 -30 -3 2 -9 -13
-13 -34 -4 -20 -11 -62 -16 -92 -6 -30 -12 -66 -15 -80 -12 -57 -35 -323 -37
-434 l-3 -118 -97 4 c-64 2 -98 0 -98 -7 0 -6 35 -9 100 -7 85 3 100 2 100
-12 0 -11 -14 -16 -57 -19 l-58 -3 56 -2 c55 -2 57 -3 63 -33 11 -56 8 -66
-26 -77 l-33 -10 38 -1 c42 -1 51 -20 10 -22 l-28 -1 28 -11 c31 -13 37 -50
10 -66 -15 -9 -12 -10 15 -11 17 0 32 -4 32 -10 0 -5 -15 -10 -34 -10 -19 0
-38 -5 -42 -11 -5 -9 3 -10 28 -5 26 5 39 2 48 -10 12 -13 11 -17 -1 -25 -8
-4 -22 -6 -31 -3 -10 3 -18 0 -18 -6 0 -7 14 -10 34 -9 19 2 38 0 42 -4 4 -4
1 -7 -7 -7 -10 -1 -9 -4 4 -11 9 -6 15 -14 12 -20 -10 -15 -62 -10 -69 6 -3 8
-11 15 -17 15 -8 0 -8 -4 1 -15 6 -8 8 -19 4 -26 -5 -9 8 -10 55 -5 37 4 61 3
61 -3 0 -5 -6 -12 -12 -14 -7 -3 -4 -6 7 -7 19 -1 19 -1 2 -11 -20 -12 -60 -2
-52 12 4 5 0 9 -8 9 -12 0 -13 -4 -4 -24 11 -22 16 -24 62 -19 33 3 46 1 36
-5 -11 -8 -11 -11 0 -16 8 -3 2 -4 -13 -1 -22 4 -25 2 -21 -14 4 -15 13 -18
51 -15 36 2 40 2 17 -4 -25 -6 -27 -9 -12 -15 10 -4 15 -11 12 -17 -4 -7 9 -9
37 -6 24 3 35 3 26 0 -24 -8 -11 -34 18 -34 12 0 27 -7 32 -16 7 -12 19 -15
40 -12 17 2 31 2 30 -1 -2 -24 4 -31 25 -26 15 4 28 1 36 -9 8 -10 22 -14 35
-10 14 3 27 -1 35 -9 6 -8 20 -13 30 -10 10 3 22 0 25 -6 4 -6 18 -11 31 -11
13 0 26 -4 29 -8 3 -5 19 -7 36 -6 18 1 33 -3 36 -11 3 -7 16 -12 30 -10 13 1
24 -1 24 -5 0 -5 21 -10 48 -13 84 -9 146 -18 178 -26 17 -5 37 -5 45 -1 7 5
21 4 31 -1 19 -10 113 -2 138 12 10 5 -1 8 -32 9 -186 1 -608 86 -756 151 -34
16 -70 26 -80 23 -12 -4 -14 -3 -4 3 10 7 3 16 -25 35 -99 66 -193 203 -227
333 -32 120 -39 277 -22 461 26 271 65 473 170 886 46 181 51 208 36 208 -12
0 -20 -15 -30 -57z"/>
<path d="M1145 3966 c-2 -6 -6 -45 -9 -86 -3 -41 -8 -88 -11 -105 -2 -16 -2
-21 1 -10 3 11 10 24 15 30 5 5 9 35 9 67 0 45 3 58 15 58 8 0 86 -20 172 -44
87 -25 159 -43 161 -41 4 4 -91 35 -233 76 -80 23 -98 34 -91 55 2 6 -3 11
-11 11 -8 0 -16 -5 -18 -11z"/>
<path d="M20 3847 c0 -12 193 -397 197 -393 4 3 -182 385 -192 395 -3 2 -5 1
-5 -2z"/>
<path d="M1160 3809 c0 -5 3 -9 8 -10 35 -4 81 -15 170 -40 57 -17 109 -28
115 -26 6 2 -18 11 -53 20 -36 9 -104 28 -152 41 -49 14 -88 20 -88 15z"/>
<path d="M1161 3568 c-1 -117 0 -211 3 -208 9 10 17 420 8 420 -4 0 -10 -96
-11 -212z"/>
<path d="M245 3390 c25 -49 41 -68 28 -32 -9 23 -44 82 -49 82 -2 0 7 -22 21
-50z"/>
<path d="M1136 3304 c-11 -29 -6 -31 87 -38 50 -3 112 -8 137 -11 25 -2 11 2
-30 10 -41 7 -92 14 -112 14 -27 1 -42 7 -50 21 -15 24 -24 25 -32 4z"/>
<path d="M0 3288 c0 -8 12 -31 28 -51 15 -19 45 -60 66 -91 22 -30 42 -54 44
-51 2 2 -28 50 -67 106 -39 56 -71 95 -71 87z"/>
<path d="M1166 3132 c11 -151 23 -181 21 -52 l-2 115 80 -2 80 -2 -65 9 c-36
5 -77 11 -93 14 l-27 6 6 -88z"/>
<path d="M0 3048 c0 -15 259 -277 423 -428 151 -140 331 -281 465 -367 92 -57
100 -61 145 -56 26 3 47 10 47 14 0 9 -53 14 -98 10 -17 -1 -22 2 -16 11 4 7
4 10 -1 6 -13 -12 -157 98 -280 214 -29 28 -48 38 -75 39 -32 1 -33 2 -8 8
l27 6 -59 65 c-32 36 -59 62 -60 58 0 -3 16 -23 35 -42 19 -20 35 -41 35 -47
0 -14 -54 26 -120 88 -30 29 -60 53 -67 53 -7 0 -12 3 -12 8 3 19 -2 32 -13
33 -7 1 -65 57 -128 124 -63 67 -121 123 -129 124 -21 2 -50 31 -45 45 3 7 -2
18 -10 25 -20 16 -56 22 -56 9z"/>
<path d="M1167 2944 c-4 -4 -7 -13 -7 -21 0 -10 24 -13 113 -11 l112 2 -94 3
c-70 3 -97 8 -105 19 -7 8 -15 12 -19 8z"/>
<path d="M2950 2935 c-18 -22 -119 -74 -125 -65 -3 4 -14 6 -25 3 -12 -3 -20
0 -20 7 0 6 -10 11 -22 10 -36 -3 -39 -1 -28 19 12 23 -5 40 -23 22 -8 -8 -8
-11 2 -11 8 0 10 -7 6 -19 -3 -11 -1 -22 5 -26 5 -3 10 -13 10 -21 0 -8 -4
-13 -9 -10 -5 3 -11 -3 -14 -14 -7 -28 3 -25 29 7 20 25 24 26 49 15 21 -10
26 -18 22 -37 -6 -36 5 -31 49 20 38 46 58 55 67 33 4 -8 6 -7 6 3 1 9 8 19
16 23 8 3 15 11 15 17 0 7 8 18 18 25 15 12 15 13 1 14 -9 0 -22 -7 -29 -15z"/>
<path d="M2590 2931 c0 -5 3 -17 6 -26 5 -13 8 -14 15 -3 13 20 11 38 -6 38
-8 0 -15 -4 -15 -9z"/>
<path d="M2525 2880 c-3 -5 -3 -10 0 -10 3 0 1 -6 -5 -12 -23 -27 -60 -82 -57
-85 8 -7 87 75 87 90 0 20 -16 31 -25 17z"/>
<path d="M2580 2865 c-10 -11 -10 -19 -2 -27 6 -6 8 -17 5 -24 -3 -8 -1 -14 5
-14 14 0 22 -38 8 -43 -6 -2 -7 -8 -3 -13 4 -5 12 -3 16 4 4 7 12 12 17 11 33
-6 52 3 56 26 4 17 1 25 -8 25 -8 0 -14 -6 -14 -14 0 -18 -23 -37 -35 -28 -13
9 -18 35 -5 27 5 -3 10 -1 10 5 0 6 5 8 10 5 6 -4 10 6 10 22 -1 27 -1 27 -15
9 -14 -19 -15 -19 -21 0 -4 10 -9 22 -11 26 -2 4 3 5 11 2 9 -3 16 -1 16 5 0
16 -36 13 -50 -4z"/>
<path d="M1197 2833 c3 -21 9 -54 13 -73 7 -28 8 -23 7 30 l-2 65 83 0 c45 0
82 3 82 8 0 4 -42 7 -94 7 l-95 0 6 -37z"/>
<path d="M2468 2863 c-9 -2 -20 -13 -23 -24 -4 -11 -11 -16 -17 -13 -6 4 -9 3
-5 -2 9 -16 -16 -40 -55 -53 -21 -7 -38 -18 -38 -25 0 -24 -35 -44 -98 -57
-55 -10 -66 -16 -88 -48 -13 -19 -24 -44 -24 -53 0 -12 -8 -18 -22 -18 -14 0
-18 -4 -12 -9 5 -5 22 -7 37 -4 24 5 28 10 24 29 -2 13 2 29 9 35 8 6 14 18
14 25 0 9 11 14 31 14 17 0 28 -4 24 -10 -3 -5 -2 -10 3 -10 6 0 12 7 16 15 6
17 71 21 81 4 5 -6 11 -4 19 7 7 9 17 14 23 11 6 -4 19 0 29 8 17 13 16 14
-16 8 -19 -3 -38 -11 -42 -17 -17 -26 -17 6 -1 40 17 36 22 39 57 37 30 -2 37
0 32 12 -3 8 -1 15 4 15 6 0 10 7 10 16 0 8 13 29 29 45 16 16 26 28 23 28 -4
-1 -15 -3 -24 -6z"/>
<path d="M2938 2773 c-24 -21 -45 -39 -47 -40 -2 -2 -1 -6 3 -10 3 -4 12 -1
18 5 7 7 21 12 31 12 13 0 17 5 13 15 -3 10 1 19 12 23 15 6 29 32 17 32 -3 0
-24 -17 -47 -37z"/>
<path d="M2510 2720 c-34 -29 -57 -39 -45 -21 3 5 1 12 -5 16 -5 3 -10 -3 -10
-14 0 -12 -7 -21 -15 -21 -8 0 -15 -4 -15 -10 0 -13 0 -13 55 11 48 21 85 48
85 61 0 14 -15 8 -50 -22z"/>
<path d="M2784 2705 c-52 -21 -84 -45 -84 -64 0 -6 7 -8 15 -5 8 4 12 10 9 15
-6 10 36 29 48 23 4 -3 5 -11 1 -19 -8 -22 8 -18 40 10 16 14 27 33 25 43 -3
16 -6 16 -54 -3z"/>
<path d="M636 2708 c32 -51 132 -183 174 -228 l51 -55 -50 65 c-28 36 -76 102
-107 148 -32 45 -62 82 -66 82 -5 0 -6 -6 -2 -12z"/>
<path d="M2858 2655 c-7 -9 -19 -22 -26 -30 -7 -8 -9 -15 -3 -15 5 0 16 7 23
15 32 35 38 45 29 45 -6 0 -16 -7 -23 -15z"/>
<path d="M931 2645 c0 -5 15 -39 34 -75 19 -36 34 -60 34 -55 0 6 -15 39 -34
75 -19 36 -34 61 -34 55z"/>
<path d="M1236 2628 c3 -13 12 -38 20 -55 7 -18 9 -33 3 -33 -5 0 -9 -8 -9
-18 0 -15 6 -18 32 -14 28 4 30 6 13 12 -11 4 -20 11 -21 16 0 11 -13 72 -20
97 -3 9 -10 17 -15 17 -6 0 -7 -10 -3 -22z"/>
<path d="M1755 2610 c-3 -5 -15 -10 -25 -10 -19 0 -90 -92 -90 -115 0 -13 45
41 65 78 13 22 20 26 42 21 19 -5 24 -4 18 6 -4 7 -2 16 6 21 9 6 10 9 2 9 -6
0 -15 -4 -18 -10z"/>
<path d="M1861 2611 c-7 -5 -27 -8 -43 -7 -16 1 -27 -2 -24 -8 2 -6 9 -10 15
-8 6 1 11 -2 11 -8 0 -16 13 -12 45 15 28 23 26 35 -4 16z"/>
<path d="M2672 2612 c-9 -2 -4 -9 13 -18 15 -8 31 -11 36 -8 5 3 9 0 9 -7 0
-7 3 -9 6 -6 17 17 -36 49 -64 39z"/>
<path d="M2360 2560 c0 -11 -3 -19 -7 -18 -12 2 -63 -24 -63 -33 0 -10 26 -1
60 20 24 15 37 51 19 51 -5 0 -9 -9 -9 -20z"/>
<path d="M1295 2461 c8 -17 12 -37 9 -45 -4 -11 0 -16 15 -16 12 0 21 5 21 10
0 6 -4 10 -8 10 -5 0 -14 11 -20 25 -9 20 -9 27 1 30 38 12 39 13 4 14 l-38 1
16 -29z"/>
<path d="M1837 2426 c-3 -8 -25 -19 -49 -24 -24 -6 -34 -10 -24 -11 18 -1 18
-3 -5 -27 -16 -17 -18 -23 -7 -19 9 4 19 13 22 22 4 10 14 13 31 9 20 -5 25
-3 25 13 0 23 28 35 45 21 9 -8 15 -8 20 0 3 5 -6 15 -20 20 -33 13 -32 13
-38 -4z"/>
<path d="M914 2363 c33 -35 61 -61 63 -59 4 4 -47 56 -93 96 -16 13 -2 -3 30
-37z"/>
<path d="M1506 2350 c9 -19 28 -45 41 -58 13 -12 22 -26 19 -31 -5 -7 21 -34
107 -106 18 -16 33 -18 30 -4 -2 4 4 6 12 3 8 -4 12 -11 8 -17 -3 -6 -1 -7 5
-3 8 5 12 0 12 -12 0 -11 6 -22 14 -25 10 -4 14 0 11 13 -3 13 1 17 11 13 7
-3 11 -9 8 -14 -3 -5 2 -6 10 -3 11 4 13 0 9 -15 -6 -24 2 -26 36 -7 22 12 22
13 -32 35 -107 44 -230 142 -300 241 -17 24 -17 24 -1 -10z"/>
<path d="M1858 2273 c12 -2 22 -8 22 -12 0 -4 6 -8 13 -8 6 0 23 -3 37 -7 14
-4 7 2 -14 14 -22 11 -49 19 -60 19 -19 -2 -19 -2 2 -6z"/>
<path d="M934 2161 c-11 -27 -9 -29 30 -48 22 -11 56 -24 73 -27 l33 -8 -3
-91 c-2 -87 -1 -92 19 -95 17 -2 23 3 27 25 3 15 1 31 -5 34 -6 4 -8 11 -4 17
3 6 2 14 -4 17 -8 5 -7 11 1 22 10 11 10 16 0 23 -11 6 -11 8 0 12 20 7 40 -2
32 -15 -4 -6 -1 -7 8 -2 30 17 38 27 32 41 -6 16 -33 19 -33 3 0 -5 5 -7 10
-4 6 3 10 2 10 -4 0 -17 -13 -18 -50 -5 -19 7 -29 13 -22 13 6 1 11 4 10 9 -4
10 5 12 56 12 l45 0 3 -110 3 -110 -82 0 c-49 0 -83 4 -83 10 0 6 -20 10 -44
10 -41 0 -45 2 -49 28 l-4 27 -2 -27 c0 -18 -7 -28 -17 -28 -8 0 -12 5 -9 10
4 6 -5 10 -20 10 -15 0 -24 -4 -20 -10 4 -6 10 -8 15 -5 4 3 14 -3 21 -12 13
-15 10 -15 -31 -9 -25 3 -118 7 -207 7 -90 1 -163 5 -163 9 0 4 -68 5 -151 3
-99 -2 -148 0 -144 7 4 6 -13 10 -43 10 -27 0 -78 2 -113 5 -41 4 -57 2 -44
-3 20 -9 20 -9 0 -14 -33 -8 98 -17 295 -22 114 -3 197 -10 217 -17 26 -11 37
-10 57 0 18 10 51 12 133 7 59 -4 144 -9 187 -12 44 -2 82 -7 84 -9 3 -2 13 0
23 6 28 15 199 0 199 -17 0 -10 -17 -14 -62 -16 l-63 -1 60 -6 60 -6 3 -102
c3 -100 3 -102 -20 -108 -13 -3 -97 -4 -188 -3 l-164 3 -7 25 -7 25 -1 -27
c-1 -18 5 -29 18 -33 11 -3 91 -7 178 -7 87 -1 161 -6 164 -11 3 -4 14 4 23
18 15 22 17 45 14 131 -3 96 4 136 15 82 3 -14 5 -8 6 15 l1 38 68 -7 c67 -7
101 -18 114 -38 4 -6 10 -7 14 -3 12 11 -27 46 -62 56 -18 5 -62 7 -96 4 -46
-3 -59 -2 -48 6 13 9 13 11 -2 11 -16 0 -18 10 -15 95 1 59 6 93 12 91 124
-55 332 -123 342 -112 4 3 -2 6 -12 6 -10 0 -16 2 -13 5 3 4 18 3 33 -1 20 -5
24 -9 13 -16 -9 -7 -2 -8 20 -4 18 3 31 2 28 -2 -5 -8 246 -53 291 -52 30 0
40 -20 14 -27 -33 -8 -25 -30 14 -37 29 -6 35 -11 35 -31 0 -17 6 -25 18 -25
9 0 27 -3 38 -6 20 -5 21 -3 14 35 -4 24 -3 38 2 35 15 -9 58 5 58 20 0 10 13
11 58 5 31 -5 109 -11 172 -15 l116 -7 -4 -33 c-4 -33 -5 -34 -52 -34 -31 0
-54 6 -64 16 -10 10 -16 11 -16 4 0 -8 -10 -10 -25 -8 -14 3 -28 1 -31 -3 -3
-5 14 -10 38 -11 38 -1 39 -2 10 -5 -19 -3 -46 0 -60 5 -15 5 -36 6 -47 2 -18
-7 -18 -8 5 -12 22 -5 21 -5 -7 -7 -28 -1 -31 2 -28 24 1 14 -2 25 -6 25 -5 0
-9 -13 -9 -30 0 -16 -5 -30 -11 -30 -5 0 -7 -4 -4 -10 3 -5 45 -9 93 -8 48 1
107 -2 132 -6 30 -5 40 -4 31 2 -11 8 -10 11 5 15 10 2 -24 6 -76 7 l-95 3 95
8 c122 12 124 11 105 -24 -8 -15 -16 -36 -17 -45 -2 -9 -7 -21 -13 -25 -6 -5
-2 -6 8 -3 17 5 18 -1 15 -79 -3 -82 -12 -109 -21 -62 -3 13 -5 8 -6 -15 0
-21 4 -38 9 -38 15 0 12 -57 -2 -63 -9 -4 -9 -6 -1 -6 13 -1 5 -41 -9 -41 -5
0 -6 5 -2 12 5 7 3 8 -6 3 -7 -5 -27 -11 -44 -15 l-31 -7 42 -8 c30 -5 43 -13
47 -29 4 -15 8 -17 14 -8 6 9 14 6 30 -13 23 -27 28 -45 12 -45 -5 0 -10 5
-10 11 0 5 -4 8 -9 4 -6 -3 -4 -24 4 -53 18 -58 18 -63 3 -60 -16 4 -11 -33 6
-47 16 -12 33 -60 18 -51 -6 3 -9 -6 -8 -23 0 -23 4 -27 13 -19 7 6 10 14 7
19 -3 5 -2 15 3 21 11 18 10 71 -1 80 -17 11 -17 48 -1 48 8 0 15 -5 15 -11 0
-6 7 -8 16 -5 8 3 12 2 9 -4 -8 -14 44 -32 77 -28 15 3 25 1 23 -2 -2 -4 42
-12 98 -19 56 -7 126 -17 156 -22 87 -15 111 -12 111 11 0 12 -7 20 -17 21
-16 0 -15 2 2 10 14 6 1 7 -40 4 -39 -3 -49 -1 -30 3 25 7 16 9 -47 15 -49 5
-85 4 -97 -3 -28 -14 -38 -12 -16 3 16 12 10 15 -49 20 -37 4 -80 4 -96 0 -19
-3 -30 -1 -30 6 0 6 -13 11 -30 11 -17 0 -31 6 -32 13 -3 25 -4 32 -12 55 -4
12 -12 22 -17 22 -6 0 -8 4 -5 9 4 5 -6 20 -22 33 -27 23 -32 47 -18 85 4 10
9 65 12 123 5 141 13 242 18 247 10 10 222 32 369 39 86 3 157 11 157 15 0 12
-59 11 -255 -6 -223 -19 -262 -19 -262 0 0 15 10 19 37 15 10 -1 9 3 -5 14
-11 8 -24 11 -28 7 -4 -4 -25 -4 -45 0 -20 5 -111 15 -202 23 -91 8 -186 19
-211 25 -25 5 -68 12 -95 14 -174 17 -398 86 -532 166 -50 29 -56 31 -95 20
l-42 -11 30 -16 c17 -9 71 -33 120 -55 50 -21 77 -35 61 -32 -47 10 -240 89
-228 93 7 2 10 7 7 12 -3 5 16 16 41 26 l46 17 -26 16 c-14 8 -27 22 -30 31
-3 11 -4 11 -5 -3 0 -10 6 -20 14 -23 8 -4 15 -9 15 -13 0 -12 -102 -44 -109
-35 -3 5 -52 9 -108 9 -91 0 -104 2 -117 20 -8 11 -10 22 -5 23 16 6 9 32 -9
32 -10 0 -22 -12 -28 -29z m1156 -296 c0 -18 -20 -20 -20 -2 -1 6 -9 2 -19
-10 -20 -24 -57 -27 -66 -6 -6 17 28 31 73 32 22 1 32 -4 32 -14z"/>
<path d="M624 2148 c4 -14 0 -18 -17 -18 -18 0 -19 -2 -7 -10 13 -8 12 -10 -4
-10 -15 0 -17 -3 -8 -12 9 -9 8 -14 -4 -23 -14 -10 -14 -13 2 -26 10 -7 15 -9
11 -2 -5 8 1 11 20 8 16 -1 27 -8 25 -15 -1 -6 3 -10 10 -8 20 7 16 32 -7 40
-19 6 -19 6 3 7 15 1 22 7 22 20 0 11 8 22 18 24 12 3 11 5 -6 6 -15 1 -21 5
-16 13 5 8 2 9 -11 4 -11 -4 -22 -1 -28 6 -6 9 -7 8 -3 -4z"/>
<path d="M681 2083 c-1 -27 2 -31 17 -26 14 5 13 3 -3 -10 -20 -16 -20 -16 3
-17 12 0 22 6 22 13 0 6 5 4 11 -5 5 -10 17 -18 26 -18 13 0 13 3 3 15 -7 8
-10 24 -7 36 7 27 -18 36 -40 13 -17 -16 -18 -16 -24 7 -6 21 -7 21 -8 -8z"/>
<path d="M6 2091 c-6 -9 51 -24 64 -16 4 3 11 -2 14 -11 4 -11 10 -13 23 -6
11 6 25 6 39 0 25 -11 54 -5 54 12 0 5 -9 10 -19 10 -11 0 -23 5 -26 10 -8 12
-142 13 -149 1z"/>
<path d="M482 2081 c-9 -5 -6 -11 13 -19 26 -12 32 -26 15 -37 -5 -3 -10 0
-10 8 0 8 -13 20 -30 25 -22 8 -29 8 -27 -1 1 -8 -8 -11 -26 -9 -25 3 -27 1
-15 -17 9 -15 16 -17 25 -9 7 6 25 8 40 4 65 -15 81 -15 87 0 3 8 -1 14 -9 14
-9 0 -12 6 -9 15 4 8 10 12 15 9 5 -3 9 0 9 7 0 7 -10 9 -29 6 -16 -4 -31 -2
-33 3 -2 5 -9 6 -16 1z"/>
<path d="M1867 2070 c-6 -24 24 -36 53 -20 18 10 21 9 18 -7 -2 -15 3 -18 30
-17 17 1 32 -2 32 -7 0 -18 18 -9 23 12 5 17 2 20 -14 15 -10 -3 -28 -9 -39
-12 -16 -5 -20 -2 -20 16 0 14 -5 20 -12 17 -7 -3 -22 -8 -33 -12 -20 -7 -20
-7 0 10 20 17 20 17 -4 10 -16 -5 -21 -4 -17 4 4 6 3 11 -2 11 -5 0 -12 -9
-15 -20z"/>
<path d="M229 2067 c-22 -8 -27 -17 -27 -45 0 -21 3 -30 8 -22 5 8 17 10 34 6
14 -3 26 -2 26 3 0 5 9 11 20 14 11 3 20 13 20 24 0 15 -2 16 -10 3 -6 -10
-10 -11 -10 -2 0 6 -7 12 -15 12 -18 0 -20 -17 -2 -23 6 -2 -4 -4 -23 -5 -19
0 -30 2 -25 6 11 8 40 43 34 41 -2 -1 -16 -6 -30 -12z"/>
<path d="M340 2046 c0 -8 -6 -17 -12 -19 -7 -3 -3 -6 10 -6 12 -1 22 -6 22
-12 0 -5 5 -7 10 -4 16 10 12 42 -6 49 -22 8 -24 8 -24 -8z"/>
<path d="M2036 2031 c-4 -5 3 -7 14 -4 11 3 20 0 20 -6 0 -6 -6 -11 -12 -11
-9 0 -8 -4 2 -10 8 -5 22 -9 30 -9 10 0 11 2 3 6 -19 7 -16 23 5 24 14 0 14 2
-3 9 -27 12 -53 12 -59 1z"/>
<path d="M106 2016 c5 -12 1 -19 -13 -22 -15 -4 -19 -12 -15 -32 l5 -26 9 24
c6 16 12 20 16 13 11 -17 52 -5 45 13 -3 8 2 17 11 20 25 10 19 24 -10 24 -19
0 -25 -4 -21 -15 4 -8 1 -17 -5 -21 -6 -4 -8 -3 -5 3 4 6 0 16 -8 23 -13 11
-14 10 -9 -4z"/>
<path d="M2932 2022 c-7 -2 -12 -7 -12 -12 0 -15 25 -17 54 -5 l29 12 -30 5
c-16 2 -35 2 -41 0z"/>
<path d="M450 2012 c0 -7 -5 -10 -11 -6 -8 5 -8 1 0 -14 9 -17 18 -20 46 -15
26 4 36 2 41 -10 3 -9 12 -13 21 -10 11 4 14 2 9 -6 -8 -13 10 -41 26 -41 5 0
7 9 3 20 -6 17 -2 19 32 17 38 -2 38 -2 41 38 2 32 0 36 -8 23 -6 -10 -18 -18
-25 -18 -21 0 -19 -18 3 -23 9 -2 0 -4 -20 -4 -21 0 -35 4 -32 9 3 4 -9 8 -25
8 -17 0 -31 5 -31 10 0 6 -11 8 -25 6 -16 -3 -28 1 -35 12 -6 11 -10 12 -10 4z"/>
<path d="M704 2005 c-4 -8 -10 -15 -16 -15 -5 0 -6 6 -2 13 4 6 4 9 -1 5 -5
-5 -10 -21 -12 -38 -2 -21 1 -30 12 -30 8 0 14 -5 13 -12 -2 -7 8 -13 22 -14
14 -1 34 -5 45 -9 19 -7 19 -7 4 9 -9 10 -22 18 -30 19 -8 2 -25 11 -39 21
l-25 18 38 -6 c24 -5 37 -3 37 4 0 6 -4 8 -10 5 -6 -4 -10 5 -10 19 0 28 -17
35 -26 11z"/>
<path d="M2117 2014 c-3 -4 0 -13 8 -20 10 -11 20 -12 40 -4 33 13 38 13 30 0
-12 -19 6 -31 21 -15 20 20 48 20 40 0 -3 -8 -1 -15 5 -15 6 0 9 8 7 18 -2 11
-13 17 -31 17 -15 -1 -27 3 -27 8 0 5 -16 6 -36 2 -24 -4 -34 -3 -29 4 7 12
-17 15 -28 5z"/>
<path d="M287 1996 c-16 -13 -16 -14 4 -19 13 -3 18 -10 14 -17 -5 -8 -10 -9
-18 -1 -6 6 -16 7 -28 1 -14 -8 -19 -6 -24 11 -6 19 -8 19 -24 5 -26 -24 -24
-51 5 -52 13 -1 21 2 18 7 -3 5 -1 9 5 9 5 0 17 3 27 7 13 5 16 3 11 -10 -4
-11 -1 -17 9 -17 8 0 13 4 10 9 -3 5 4 11 15 14 12 3 18 10 15 15 -3 5 5 7 18
5 13 -3 27 0 31 7 10 16 36 -7 28 -26 -3 -8 1 -14 11 -14 9 0 16 -5 16 -11 0
-15 73 -6 78 10 3 10 0 11 -18 1 -12 -6 -23 -10 -24 -8 -2 2 -10 14 -19 28
-15 22 -17 22 -17 5 0 -17 -2 -17 -13 5 -8 15 -9 28 -4 31 5 4 3 9 -4 11 -8 3
-20 -3 -29 -13 -11 -12 -21 -15 -35 -9 -13 6 -15 9 -5 9 13 1 13 2 0 11 -20
13 -32 12 -53 -4z"/>
<path d="M801 1996 c-18 -10 -21 -15 -10 -20 8 -3 3 -4 -9 -2 -22 4 -23 3 -8
-13 9 -10 16 -25 16 -34 0 -9 5 -17 11 -17 6 0 8 8 4 19 -6 21 24 39 35 20 5
-6 9 -2 13 11 3 12 3 19 -1 16 -3 -4 -11 2 -16 13 -10 17 -14 18 -35 7z"/>
<path d="M870 1965 c0 -25 5 -45 10 -45 6 0 10 20 10 45 0 25 -4 45 -10 45 -5
0 -10 -20 -10 -45z"/>
<path d="M2803 1998 c-13 -6 -23 -18 -23 -27 0 -9 -3 -26 -6 -38 -4 -14 -2
-23 5 -23 5 0 8 6 5 14 -3 7 6 21 20 30 15 9 26 13 26 8 0 -5 13 -9 30 -8 16
1 30 4 30 7 0 4 25 5 55 3 78 -6 69 12 -10 21 -44 4 -70 3 -80 -5 -11 -9 -12
-7 -8 9 6 24 -8 26 -44 9z"/>
<path d="M0 1971 c0 -15 7 -21 23 -22 21 0 21 -1 2 -9 -15 -7 -16 -9 -4 -9 9
-1 22 6 29 14 11 13 8 15 -14 15 -15 0 -25 4 -21 9 3 5 1 12 -5 16 -5 3 -10
-3 -10 -14z"/>
<path d="M2285 1980 c3 -5 12 -7 20 -3 10 3 15 -1 15 -12 0 -11 5 -15 15 -11
8 3 22 9 30 12 10 4 15 0 15 -10 0 -9 5 -16 10 -16 12 0 13 10 1 29 -5 8 -19
12 -35 9 -14 -3 -26 -1 -26 3 0 5 -12 9 -26 9 -14 0 -23 -4 -19 -10z"/>
<path d="M160 1949 c0 -7 -12 -10 -30 -7 -17 3 -27 1 -23 -3 9 -8 29 -12 56
-10 18 1 25 31 7 31 -5 0 -10 -5 -10 -11z"/>
<path d="M2548 1953 c12 -2 22 -11 22 -19 0 -8 5 -14 11 -14 6 0 9 8 7 18 -2
11 -13 18 -33 19 -20 1 -23 0 -7 -4z"/>
<path d="M1582 1884 c-2 -39 -4 -42 -37 -48 -19 -4 -42 -3 -51 2 -9 5 -26 7
-38 4 -15 -4 -3 -10 39 -18 35 -7 61 -9 63 -3 7 17 21 9 24 -13 7 -45 14 23 7
72 l-6 45 -1 -41z"/>
<path d="M2855 1899 c-250 -22 -325 -31 -325 -39 0 -4 6 -7 13 -7 6 0 40 -4
75 -8 47 -6 62 -5 62 5 0 9 14 11 53 7 30 -3 43 -2 32 3 -15 5 -4 9 40 14 33
4 77 9 98 12 23 4 37 2 37 -5 0 -6 5 -11 11 -11 5 0 7 5 4 10 -4 6 5 10 19 10
14 0 26 5 26 10 0 11 -13 11 -145 -1z"/>
<path d="M1691 1843 c2 -26 2 -26 6 -4 4 18 10 22 29 18 13 -2 24 0 24 4 0 5
-13 9 -30 9 -26 0 -30 -3 -29 -27z"/>
<path d="M45 1840 c49 -8 592 -14 584 -6 -2 2 -146 6 -319 9 -175 3 -293 1
-265 -3z"/>
<path d="M1725 1808 c2 -30 -12 -48 -24 -30 -3 5 -26 13 -51 17 -41 6 -46 5
-47 -14 -2 -19 0 -20 14 -6 11 11 19 13 28 5 7 -6 20 -8 29 -4 9 4 16 1 16 -6
0 -8 9 -11 25 -8 18 4 25 1 26 -11 0 -12 2 -11 9 4 7 19 8 19 15 2 5 -12 1
-23 -14 -36 -11 -10 -21 -28 -21 -40 0 -32 15 -25 26 12 5 17 15 31 22 30 7
-2 12 7 12 21 0 13 6 27 13 29 9 4 8 8 -3 16 -11 8 -17 6 -22 -7 -7 -19 -10
-11 -10 29 -1 21 -6 27 -23 27 -18 0 -21 -6 -20 -30z"/>
<path d="M0 1810 c0 -5 13 -10 29 -10 31 0 50 -17 45 -40 -2 -8 -8 -37 -14
-65 -6 -27 -15 -51 -20 -53 -6 -2 -10 -14 -10 -28 0 -17 -4 -22 -15 -18 -8 4
-15 1 -15 -5 0 -6 14 -11 31 -11 16 0 28 4 25 8 -2 4 7 56 21 115 l25 107 35
0 c29 0 34 -3 28 -17 -13 -33 -17 -95 -6 -88 6 3 11 14 11 24 0 31 28 76 52
83 13 3 -32 6 -99 7 -76 1 -123 -3 -123 -9z"/>
<path d="M1298 1813 c17 -2 47 -2 65 0 17 2 3 4 -33 4 -36 0 -50 -2 -32 -4z"/>
<path d="M410 1789 c-7 -11 -10 -22 -8 -24 2 -2 32 -8 67 -14 51 -8 69 -7 92
4 28 15 75 17 94 5 6 -4 21 -7 34 -8 13 0 27 -5 30 -10 3 -5 15 -6 26 -1 19 7
19 8 -3 8 -28 1 -19 21 9 21 14 0 19 6 17 18 -3 15 -21 17 -175 20 -166 2
-172 2 -183 -19z"/>
<path d="M1465 1800 c11 -5 32 -9 46 -9 27 -1 54 -23 43 -34 -12 -12 7 -28 20
-18 7 6 15 10 17 8 2 -1 -4 4 -13 12 -10 7 -18 19 -18 26 0 15 -32 25 -80 24
-29 0 -31 -2 -15 -9z"/>
<path d="M801 1787 c0 -10 -5 -16 -10 -13 -5 3 -12 -26 -15 -64 -4 -41 -11
-68 -17 -65 -5 4 -6 11 -3 17 5 7 1 9 -9 5 -10 -3 -17 -2 -17 3 0 6 7 10 15
10 8 0 15 8 15 17 0 12 -3 14 -10 7 -6 -6 -34 -9 -63 -7 -38 2 -47 1 -32 -6
11 -5 29 -10 41 -10 11 -1 21 -8 21 -16 0 -8 -3 -13 -5 -10 -7 7 -32 -15 -32
-27 0 -6 7 -5 15 2 8 7 15 8 15 3 0 -7 19 -8 63 -4 4 1 7 14 7 29 0 16 9 37
20 47 21 19 23 17 33 -30 3 -11 5 12 6 50 0 62 -1 68 -14 52 -13 -18 -14 -17
-18 5 -3 15 -5 17 -6 5z"/>
<path d="M860 1781 c0 -17 8 -18 85 -15 77 3 85 2 85 -15 0 -12 -11 -22 -32
-29 -18 -5 -25 -10 -15 -11 13 -1 17 -10 17 -37 0 -21 4 -33 10 -29 6 3 10 15
10 26 0 12 7 19 20 19 21 0 27 15 10 25 -5 3 -10 16 -10 28 0 17 6 22 25 22
21 0 25 -5 25 -32 0 -17 -6 -34 -12 -36 -7 -3 17 -6 55 -6 65 -1 88 11 47 24
-11 3 -20 13 -20 21 0 20 28 17 33 -3 4 -14 5 -12 6 5 0 12 -3 22 -9 22 -5 0
-10 9 -10 20 0 11 -5 20 -11 20 -6 0 -9 -7 -6 -15 8 -19 -3 -24 -28 -14 -17 6
-17 8 -2 8 9 1 17 6 17 11 0 6 -55 10 -145 10 -135 0 -145 -1 -145 -19z m287
-37 c8 -22 -18 -37 -36 -20 -7 8 -10 19 -7 25 10 16 36 13 43 -5z"/>
<path d="M1298 1763 c3 -16 11 -37 18 -48 8 -11 14 -29 14 -40 0 -16 2 -17 10
-5 5 8 10 13 11 10 0 -3 2 -15 5 -26 2 -12 -3 -27 -11 -34 -9 -8 -15 -8 -15
-2 0 6 6 12 13 15 6 2 9 8 4 13 -4 4 -15 0 -25 -10 -16 -16 -16 -18 3 -32 16
-12 44 -14 133 -12 61 2 112 0 112 -4 0 -5 -5 -8 -11 -8 -5 0 -7 -5 -4 -11 9
-13 -25 -38 -42 -32 -7 3 -13 11 -13 19 0 8 -9 14 -20 14 -28 0 -25 -5 15 -30
19 -12 35 -30 35 -40 0 -15 -10 -19 -50 -22 -28 -1 -51 1 -53 6 -3 10 -95 -11
-111 -25 -15 -14 -24 -11 -29 9 -4 16 -5 16 -6 0 0 -10 -7 -18 -15 -18 -8 0
-17 8 -19 18 -4 16 -5 16 -6 0 -2 -26 -51 -24 -58 2 -5 19 -5 19 -22 0 -13
-15 -35 -20 -116 -25 -55 -3 -112 -7 -127 -9 -16 -2 -47 -4 -70 -5 -40 -2 -41
-3 -18 -12 26 -11 133 -5 560 31 309 26 352 28 357 13 4 -10 -14 -13 -66 -13
-40 0 -71 -4 -71 -10 0 -6 16 -8 35 -5 37 4 102 -25 87 -39 -4 -5 2 -6 13 -4
15 2 20 12 21 38 1 51 4 58 14 33 11 -28 54 -40 92 -25 22 8 28 7 28 -4 0 -8
-10 -14 -22 -15 -19 -1 -18 -2 7 -10 46 -15 285 -24 285 -11 0 11 82 42 112
42 15 0 18 8 18 45 0 48 -13 59 -25 23 -7 -22 -8 -21 -12 7 -3 17 -9 35 -15
40 -7 7 -8 2 -4 -15 7 -24 6 -24 -8 -6 -12 14 -16 16 -16 5 0 -12 -2 -12 -9 0
-6 9 -18 11 -35 7 -21 -5 -26 -11 -21 -26 4 -14 -2 -23 -24 -34 -37 -20 -41
-20 -41 -1 0 12 -17 15 -90 15 -88 0 -91 1 -100 26 -7 18 -6 33 3 52 16 33 16
57 0 56 -30 -2 -34 -5 -27 -15 3 -6 6 -45 7 -87 0 -75 -1 -77 -27 -87 -33 -11
-60 3 -64 34 -3 21 12 29 23 11 3 -5 11 -10 16 -10 6 0 7 5 4 10 -3 6 1 10 9
10 10 0 13 6 9 17 -5 12 -3 14 7 8 10 -6 12 -4 5 11 -4 10 -7 28 -7 38 1 14
-2 16 -11 7 -6 -6 -22 -11 -35 -11 -24 0 -24 -1 -8 -25 20 -30 20 -35 1 -35
-8 0 -15 9 -15 19 0 11 -4 22 -9 26 -6 3 -7 -9 -4 -30 3 -21 1 -35 -4 -35 -6
0 -32 20 -57 45 -66 63 -109 61 -115 -5 -1 -19 -7 -39 -12 -44 -17 -19 -21 4
-9 53 11 48 14 51 43 51 l32 0 -32 20 c-20 12 -33 28 -33 40 0 13 -7 20 -19
20 -12 0 -31 18 -50 46 -40 61 -68 74 -156 74 l-72 0 5 -27z m262 -126 c0 -16
-7 -18 -42 -15 -48 4 -65 27 -21 29 15 1 31 1 36 0 4 0 7 4 7 9 0 5 -4 11 -10
11 -22 3 -26 5 -46 19 -11 8 -24 31 -27 50 l-7 35 55 -60 c30 -33 55 -68 55
-78z m-147 104 c32 -1 37 -4 37 -25 0 -13 -7 -26 -15 -30 -22 -8 -18 -26 5
-26 14 0 20 -7 20 -22 -1 -21 -2 -22 -14 -5 -8 10 -26 17 -45 17 -17 0 -31 5
-31 12 0 6 -11 26 -25 44 -14 18 -25 34 -25 36 0 2 12 3 28 2 15 -1 44 -2 65
-3z m262 -216 c0 -13 -8 -21 -23 -23 -26 -4 -42 25 -21 39 22 14 44 6 44 -16z
m562 -22 c-9 -2 -15 -9 -12 -14 4 -5 -5 -9 -19 -9 -14 0 -26 5 -26 11 0 6 7 9
15 6 8 -4 17 -2 20 3 4 6 14 9 23 9 15 -1 15 -2 -1 -6z m-291 -23 c8 0 14 -4
14 -8 0 -14 -53 -8 -58 7 -3 10 0 12 12 8 10 -4 24 -7 32 -7z m230 -26 c8 -30
-12 -57 -22 -31 -3 9 -11 14 -17 10 -17 -10 -187 -12 -187 -3 0 5 -8 11 -17
14 -10 2 30 2 88 0 100 -4 107 -3 112 16 7 28 35 25 43 -6z m79 6 c3 -5 -9 -9
-29 -8 -19 1 -33 5 -30 10 7 11 51 10 59 -2z"/>
<path d="M2742 1779 c-73 -4 -140 -10 -149 -13 -14 -6 -15 -23 -10 -138 8
-187 19 -198 177 -188 l85 5 -96 6 c-95 5 -136 19 -122 42 3 5 2 8 -3 4 -5 -3
-10 11 -11 31 -1 20 -3 46 -5 57 -7 44 18 20 43 -40 14 -36 28 -67 31 -70 2
-3 54 -8 114 -13 l109 -7 -14 31 c-13 29 -19 32 -74 38 -33 3 -80 6 -103 6
-38 0 -44 3 -44 21 0 27 -17 60 -44 82 -14 12 -16 17 -6 16 36 -4 42 1 26 17
-19 18 -21 63 -3 68 6 3 47 7 91 10 l78 5 -27 -29 c-18 -19 -33 -26 -47 -22
-18 4 -20 1 -16 -21 3 -16 0 -28 -8 -31 -51 -19 36 -26 148 -12 18 3 54 5 80
5 l47 1 -9 31 c-12 41 -11 41 -59 33 -35 -6 -41 -10 -41 -30 0 -28 -6 -30 -26
-9 -9 9 -11 15 -4 15 6 0 8 5 5 10 -4 6 -11 8 -16 5 -5 -4 -9 5 -9 18 0 23 15
36 49 43 9 2 12 -5 8 -22 -3 -16 0 -24 9 -24 8 0 14 9 14 20 0 13 7 20 20 20
11 0 20 5 20 10 0 6 9 10 19 10 11 0 23 5 26 10 7 11 -48 11 -253 -1z m78 -70
c0 -16 -4 -20 -17 -15 -15 5 -14 3 2 -9 16 -13 17 -17 6 -24 -17 -11 -41 -3
-41 13 0 14 32 56 43 56 4 0 7 -9 7 -21z m135 -30 c9 -13 6 -15 -32 -24 -38
-8 -44 7 -10 23 29 14 34 14 42 1z m-138 -195 c-7 -7 -87 -7 -94 0 -15 15 20
23 58 13 22 -5 38 -11 36 -13z"/>
<path d="M2095 1771 c-19 -8 -19 -8 0 -19 18 -10 17 -11 -10 -12 -24 0 -27 -2
-15 -11 11 -7 -2 -8 -44 -3 -59 7 -59 7 -53 -17 4 -13 7 -30 7 -36 0 -8 13
-13 30 -13 22 0 30 5 29 18 0 10 -3 12 -6 5 -3 -9 -10 -10 -24 -3 -24 13 -25
40 -1 40 14 0 15 -2 2 -10 -12 -8 -9 -10 13 -10 21 0 27 -5 27 -23 0 -32 36
-34 44 -2 3 13 3 31 -1 41 -5 13 -3 16 10 11 14 -5 17 0 17 23 0 17 -1 30 -2
29 -2 0 -12 -4 -23 -8z"/>
<path d="M1900 1755 c-16 -9 -19 -14 -9 -15 8 0 21 6 27 12 8 8 15 9 20 3 4
-6 32 -11 62 -12 l55 -2 -45 9 c-25 5 -54 12 -65 14 -11 3 -31 -2 -45 -9z"/>
<path d="M935 1740 c-3 -5 -24 -10 -46 -10 l-39 0 0 -66 0 -67 77 7 c42 3 120
6 175 6 l98 0 0 26 c0 25 -2 26 -37 20 -21 -3 -60 -6 -87 -6 -36 0 -47 -3 -43
-13 7 -18 -32 -15 -44 4 -7 11 -9 11 -9 0 0 -8 -7 -11 -20 -8 -11 3 -18 2 -15
-3 7 -12 -20 -20 -35 -10 -7 4 -9 13 -6 19 4 6 5 11 1 11 -3 0 -10 -10 -15
-22 -7 -18 -9 -13 -9 28 -1 48 1 52 27 60 31 9 41 11 62 13 13 1 13 2 0 11
-19 12 -27 12 -35 0z"/>
<path d="M556 1727 c-11 -8 -17 -20 -14 -28 3 -10 9 -8 23 9 11 12 26 22 34
22 9 0 4 -9 -12 -24 -23 -21 -24 -25 -9 -30 9 -2 3 -3 -14 -1 -30 3 -32 1 -38
-36 l-6 -39 -57 0 c-31 0 -54 -2 -51 -6 9 -8 338 8 338 17 0 5 -27 6 -60 2
-34 -3 -60 -2 -59 3 4 23 -3 26 -21 9 -11 -10 -26 -15 -36 -11 -15 6 -11 11
20 32 27 19 36 31 33 45 -3 10 -1 19 4 19 4 0 6 7 3 15 -8 19 -54 20 -78 2z"/>
<path d="M1810 1717 c0 -7 11 -14 25 -15 16 -1 25 3 25 13 0 9 -10 15 -25 15
-14 0 -25 -6 -25 -13z"/>
<path d="M1882 1697 c0 -28 5 -35 49 -56 27 -14 49 -29 49 -33 0 -11 -7 -10
-31 2 -16 9 -19 7 -19 -10 0 -11 6 -20 14 -20 25 0 46 12 46 26 0 8 7 14 15
14 8 0 15 -4 15 -10 0 -5 9 -10 21 -10 11 0 17 -4 14 -10 -3 -5 -1 -10 4 -10
20 0 11 20 -11 30 -22 8 -22 9 4 9 23 1 29 -5 37 -31 6 -22 9 -26 10 -12 2 41
-23 59 -86 60 -54 1 -59 3 -67 27 -7 20 -15 26 -28 21 -12 -3 -18 0 -18 9 0
10 7 13 20 10 14 -4 20 0 20 11 0 11 -9 16 -29 16 -26 0 -29 -3 -29 -33z"/>
<path d="M354 1653 c-6 -35 -7 -63 -3 -63 10 0 22 81 17 106 -2 11 -9 -9 -14
-43z"/>
<path d="M1624 1690 c3 -14 6 -28 6 -32 0 -5 6 -8 14 -8 8 0 17 -6 19 -12 3
-7 4 0 2 17 -1 16 -8 31 -16 34 -8 2 -18 9 -22 15 -5 6 -6 0 -3 -14z"/>
<path d="M1678 1686 c-4 -19 0 -27 14 -32 27 -8 28 -3 8 29 l-17 28 -5 -25z"/>
<path d="M2114 1697 c3 -22 32 -57 47 -57 8 0 7 6 -2 18 -11 14 -11 15 1 5 19
-18 55 -16 70 2 11 14 15 14 35 1 21 -14 23 -13 28 3 6 23 -24 29 -103 21 -42
-4 -58 -1 -67 10 -10 13 -11 13 -9 -3z"/>
<path d="M150 1665 c0 -14 -8 -30 -19 -36 -17 -12 -17 -13 1 -31 11 -11 27
-17 36 -15 15 4 15 5 1 6 -13 1 -15 10 -11 51 2 28 2 50 -2 50 -3 0 -6 -11 -6
-25z"/>
<path d="M1802 1651 c-6 -20 -10 -44 -10 -54 1 -16 3 -16 20 0 10 9 18 21 18
27 0 6 -8 2 -17 -9 -14 -18 -15 -18 -9 -2 3 10 6 23 6 28 0 5 14 7 31 5 23 -3
29 0 25 11 -3 8 -6 18 -6 23 0 4 -11 8 -24 8 -19 0 -26 -8 -34 -37z"/>
<path d="M2310 1682 c0 -17 25 -32 52 -32 27 0 27 1 11 20 -17 19 -63 28 -63
12z"/>
<path d="M1760 1662 c0 -10 7 -19 15 -19 8 0 15 9 15 19 0 10 -7 18 -15 18 -8
0 -15 -8 -15 -18z"/>
<path d="M2246 1625 c-7 -28 -27 -32 -46 -10 -8 9 -23 14 -39 11 -14 -2 -30
-5 -34 -5 -4 -1 -3 -10 3 -21 6 -11 15 -18 21 -15 5 4 9 1 9 -4 0 -6 5 -11 11
-11 6 0 9 6 6 14 -8 20 4 28 20 15 11 -9 11 -15 1 -28 -8 -10 -3 -8 11 4 14
11 21 14 17 8 -5 -9 1 -13 20 -13 15 0 32 -6 38 -12 8 -9 31 -11 81 -7 39 3
60 6 48 7 -13 1 -23 9 -23 17 0 17 -36 39 -50 30 -6 -3 -10 -15 -10 -26 0 -10
-7 -19 -15 -19 -8 0 -15 7 -15 15 0 9 -9 15 -21 15 -17 0 -20 4 -15 24 3 14 2
27 -3 30 -5 3 -12 -5 -15 -19z"/>
<path d="M1720 1578 c0 -7 12 -24 27 -38 23 -22 26 -22 19 -5 -5 11 -11 28
-13 38 -6 19 -33 24 -33 5z"/>
<path d="M2004 1581 c8 -12 -49 -20 -68 -9 -8 5 -17 4 -20 -1 -3 -5 4 -11 17
-15 18 -5 20 -8 7 -16 -11 -7 1 -9 40 -9 49 2 51 2 20 9 -35 7 -35 7 -10 17
16 7 31 7 44 1 12 -7 22 -6 29 1 8 8 5 11 -10 11 -12 0 -25 5 -28 10 -3 6 -11
10 -16 10 -6 0 -8 -4 -5 -9z"/>
<path d="M2853 1583 c24 -6 21 -23 -3 -18 -12 2 -18 0 -15 -6 4 -5 11 -7 16
-4 5 4 9 2 9 -4 0 -6 12 -4 27 4 15 8 31 11 37 8 6 -4 5 1 -3 10 -8 11 -27 17
-50 16 -20 -1 -28 -3 -18 -6z"/>
<path d="M196 1569 c-103 -4 -191 -11 -195 -15 -3 -4 80 -4 184 0 419 14 520
18 524 22 7 6 -304 2 -513 -7z"/>
<path d="M1334 1561 c4 -5 0 -12 -6 -14 -7 -3 -4 -6 8 -6 11 -1 24 3 30 8 5 5
27 11 49 14 29 3 23 4 -23 5 -36 1 -61 -2 -58 -7z"/>
<path d="M1282 1530 c5 -16 85 -22 95 -7 2 4 14 7 25 7 12 0 19 2 16 5 -3 3
-31 2 -61 -3 -38 -6 -60 -5 -68 2 -8 8 -10 7 -7 -4z"/>
<path d="M2070 1531 c0 -6 9 -11 19 -11 11 0 22 -8 25 -17 3 -11 4 -7 3 7 -1
18 -9 26 -24 28 -13 2 -23 -1 -23 -7z"/>
<path d="M2925 1520 c-25 -6 -25 -11 0 -10 11 1 33 -25 28 -32 -2 -5 1 -8 6
-8 10 0 15 14 12 32 0 4 6 5 14 2 9 -4 15 0 15 10 0 17 -23 19 -75 6z"/>
<path d="M1174 1509 c26 -6 43 -6 50 1 7 7 -6 10 -39 9 l-50 -1 39 -9z"/>
<path d="M770 1431 c0 -4 -60 -11 -132 -15 -249 -13 -293 -16 -323 -21 -16 -3
-88 -8 -160 -11 -72 -3 -136 -6 -142 -7 -7 0 -13 -7 -13 -15 0 -12 13 -13 73
-8 39 4 104 8 142 11 39 2 77 6 85 9 8 3 118 12 244 22 194 14 229 15 237 3 7
-12 -28 -17 -204 -30 -367 -28 -516 -43 -511 -50 2 -4 -11 -5 -31 -2 -28 5
-35 2 -35 -11 0 -15 9 -16 77 -10 75 7 77 6 63 -11 -13 -17 -13 -18 1 -13 9 4
38 9 65 13 27 3 60 9 74 12 23 5 24 6 5 13 -16 7 -14 9 13 9 17 1 32 5 32 9 0
9 148 25 343 38 l97 7 1 -24 c1 -21 2 -21 6 -4 3 11 14 30 26 43 l20 22 -21 0
c-15 0 -20 5 -16 15 4 8 1 15 -5 15 -6 0 -11 -4 -11 -9z"/>
<path d="M1528 1435 c-2 -3 -39 -7 -81 -9 -42 -3 -81 -7 -86 -10 -9 -6 -48 -8
-171 -10 -36 0 -68 -4 -71 -9 -3 -4 -62 -9 -130 -11 -172 -5 -169 -5 -169 -17
0 -10 222 -6 315 7 22 2 57 5 78 6 20 0 37 5 37 9 0 5 24 6 53 3 28 -3 58 -5
65 -5 6 1 20 2 30 2 9 1 22 5 27 9 6 3 36 7 68 8 32 1 70 8 85 16 l27 15 -36
1 c-20 0 -38 -2 -41 -5z"/>
<path d="M2851 1436 c11 -10 149 -16 149 -7 0 7 -29 11 -77 11 -42 0 -74 -2
-72 -4z"/>
<path d="M1620 1413 c-14 -3 -31 -10 -38 -16 -38 -31 -77 -167 -48 -167 8 0
20 -8 25 -17 9 -15 10 -14 11 9 0 20 -4 26 -15 22 -11 -5 -15 1 -15 24 0 44
57 102 99 102 34 0 76 -34 65 -52 -5 -7 -13 -4 -25 10 -24 30 -34 28 -65 -14
-27 -35 -27 -37 -13 -77 20 -53 42 -68 66 -43 17 17 17 18 -4 12 -42 -13 -60
74 -20 98 25 15 48 -16 40 -54 -3 -15 0 -31 6 -34 16 -10 32 38 25 74 -7 31 0
36 25 21 8 -5 11 -16 8 -25 -9 -22 15 -21 43 2 17 14 21 26 18 65 l-3 47 -29
-15 c-38 -20 -43 -19 -78 10 -16 14 -35 24 -41 24 -7 -1 -23 -4 -37 -6z m150
-67 c0 -21 -27 -27 -42 -9 -11 15 -11 16 5 10 9 -3 17 -2 17 3 0 6 5 10 10 10
6 0 10 -6 10 -14z"/>
<path d="M1400 1350 l-35 -7 35 -1 c19 -1 53 3 75 7 l40 9 -40 0 c-22 -1 -56
-4 -75 -8z"/>
<path d="M1261 1339 c-41 -5 -77 -11 -80 -15 -10 -9 163 7 174 17 10 10 12 10
-94 -2z"/>
<path d="M965 1300 c-27 -7 -28 -8 -5 -8 14 0 45 3 70 7 l45 8 -40 1 c-22 0
-53 -4 -70 -8z"/>
<path d="M190 1256 c-30 -6 -64 -17 -75 -24 -20 -11 -20 -11 2 -12 12 0 33 4
46 9 14 6 51 13 83 17 81 9 83 9 90 17 11 11 -85 7 -146 -7z"/>
<path d="M2539 1240 c-7 -5 -11 -11 -9 -14 3 -2 97 -14 210 -25 113 -12 217
-23 233 -26 22 -4 27 -1 27 15 0 25 -17 29 -127 32 -51 2 -93 7 -93 11 0 5
-26 8 -57 7 -32 -1 -83 1 -114 3 -31 3 -62 1 -70 -3z"/>
<path d="M1701 1195 c-26 -39 -47 -45 -146 -42 -38 2 -110 -6 -160 -16 -49
-10 -116 -23 -148 -28 -103 -16 -120 -20 -139 -30 -37 -20 -11 -19 108 1 65
10 151 25 189 31 39 7 74 15 78 19 5 4 26 3 48 -2 50 -13 121 -2 152 23 14 10
36 19 49 19 38 0 51 14 31 32 -33 27 -38 27 -62 -7z"/>
<path d="M181 1074 c-23 -29 -27 -44 -11 -44 6 0 10 5 10 10 0 6 3 9 8 8 15
-3 42 15 42 28 0 8 4 14 9 14 15 0 23 -18 11 -23 -6 -3 -5 -4 1 -3 7 1 13 10
15 19 4 30 -60 22 -85 -9z"/>
<path d="M2298 1032 c-16 -14 -27 -31 -24 -38 3 -8 -1 -14 -10 -14 -8 0 -27
-20 -42 -45 -15 -25 -34 -45 -42 -45 -12 0 -13 -2 -1 -9 7 -5 10 -14 6 -21 -8
-12 45 -73 79 -92 33 -18 258 -98 276 -98 3 0 6 9 6 19 0 18 -27 28 -91 36 -5
0 -35 10 -65 20 -30 11 -57 20 -60 20 -3 0 -21 9 -41 18 -45 22 -79 53 -79 72
0 17 39 85 49 85 4 0 14 13 24 29 13 22 23 28 40 25 19 -4 20 -3 3 4 -19 8
-19 9 3 24 17 12 37 15 80 11 31 -3 52 -2 48 3 -4 5 -36 11 -69 14 -55 5 -64
4 -90 -18z"/>
<path d="M248 1043 c-10 -2 -18 -11 -18 -19 0 -8 -4 -14 -10 -14 -5 0 -10 4
-10 9 0 5 -10 7 -22 3 -21 -5 -21 -6 6 -15 24 -8 32 -6 54 17 15 14 24 25 22
25 -3 -1 -13 -3 -22 -6z"/>
<path d="M1084 1025 c1 -8 5 -18 9 -21 4 -4 7 -15 7 -25 0 -9 6 -20 13 -23 8
-4 9 -8 1 -11 -6 -3 3 -21 23 -42 19 -19 32 -38 29 -41 -3 -3 3 -19 14 -37 11
-18 18 -35 15 -38 -3 -4 -2 -5 2 -2 6 5 45 -52 40 -58 -6 -9 34 -37 44 -31 8
5 6 11 -7 21 -10 8 -18 16 -16 18 7 14 0 35 -11 35 -8 0 -20 12 -28 28 -8 15
-20 31 -27 35 -10 7 -10 12 -1 23 9 11 8 15 -5 20 -9 3 -16 14 -16 24 0 11 -4
21 -9 25 -6 3 -21 30 -36 60 -24 52 -46 73 -41 40z"/>
<path d="M110 1020 c0 -5 5 -12 11 -15 5 -4 14 -18 20 -32 8 -23 13 -24 57
-19 30 4 53 14 65 27 26 31 21 46 -7 20 -16 -15 -39 -24 -65 -25 -22 -1 -39 0
-37 3 1 4 -8 16 -21 28 -13 12 -23 18 -23 13z"/>
<path d="M228 917 c-27 -11 -48 -25 -48 -30 0 -13 51 1 64 17 6 8 20 18 31 24
33 19 3 11 -47 -11z"/>
<path d="M2130 833 l-25 -13 27 0 c17 0 28 -6 31 -17 3 -10 4 -6 3 9 -3 35 -6
37 -36 21z"/>
<path d="M1677 814 c2 -7 19 -18 36 -25 18 -7 36 -15 42 -17 5 -3 2 6 -6 19
-17 26 -81 46 -72 23z"/>
<path d="M1907 733 c-4 -3 -23 -6 -44 -5 l-36 2 38 -20 c47 -24 56 -25 29 -5
-19 14 -18 14 4 15 12 0 22 5 22 10 0 12 -4 13 -13 3z"/>
<path d="M2058 708 c14 -7 22 -19 21 -32 -2 -37 1 -41 34 -42 17 -1 25 0 15 3
-9 2 -23 19 -32 37 -9 19 -23 37 -32 40 -26 10 -31 5 -6 -6z"/>
<path d="M2569 678 c6 -17 24 -27 72 -41 35 -10 127 -38 205 -62 153 -49 154
-49 154 -36 0 5 -80 35 -177 66 -98 32 -195 66 -215 76 -47 24 -49 24 -39 -3z"/>
<path d="M1276 681 c-3 -4 5 -22 17 -39 12 -16 29 -40 37 -52 8 -12 21 -28 28
-36 6 -7 12 -19 12 -27 0 -8 7 -20 15 -27 8 -7 12 -17 8 -24 -4 -6 1 -4 12 4
17 14 17 15 1 18 -11 3 -15 9 -12 19 4 10 -2 22 -14 30 -11 8 -20 19 -20 24 0
6 -9 22 -20 36 -11 14 -20 32 -20 40 0 14 -23 43 -34 43 -3 0 -7 -4 -10 -9z"/>
<path d="M1996 643 c-3 -8 -10 -11 -16 -8 -5 3 -10 1 -10 -4 0 -14 17 -14 25
-1 10 16 33 12 38 -7 4 -14 5 -14 6 3 1 26 -35 40 -43 17z"/>
<path d="M2213 644 c-4 -12 -14 -14 -37 -10 l-31 6 25 -15 c36 -20 47 -18 52
10 6 28 1 33 -9 9z"/>
<path d="M2416 626 c20 -15 14 -33 -8 -20 -12 8 -52 14 -45 7 2 -1 32 -17 67
-35 73 -38 92 -64 39 -53 -25 4 -30 3 -19 -4 8 -6 28 -11 43 -11 24 0 27 3 22
20 -4 13 -2 20 7 20 7 0 30 -9 51 -20 43 -23 61 -26 33 -5 -17 13 -17 15 -3
20 8 4 24 2 36 -4 24 -14 74 -14 66 -1 -3 5 -12 7 -20 4 -8 -4 -37 6 -65 20
-53 28 -70 32 -70 16 0 -5 6 -7 13 -5 15 6 44 -11 34 -21 -10 -10 -135 12
-153 27 -20 17 3 31 28 18 11 -6 30 -9 44 -7 24 3 24 4 10 23 -15 19 -16 19
-9 1 5 -16 3 -18 -13 -12 -10 4 -31 10 -47 13 -15 3 -30 10 -33 14 -3 5 -10 9
-17 9 -6 0 -2 -6 9 -14z"/>
<path d="M2143 597 c20 -17 22 -33 5 -41 -7 -3 0 -2 16 1 20 4 33 1 40 -9 6
-8 20 -15 31 -15 11 -1 46 -4 77 -6 31 -2 62 0 70 5 9 6 5 7 -11 3 -13 -4 -21
-3 -18 1 3 5 -25 9 -63 9 -56 1 -73 5 -101 26 -38 28 -74 49 -46 26z"/>
<path d="M2730 565 c19 -7 52 -20 73 -28 42 -15 75 -43 64 -54 -4 -4 -31 3
-59 15 -48 20 -80 22 -48 2 8 -5 11 -12 7 -17 -4 -4 -17 -1 -29 6 -11 7 -17 8
-13 2 3 -6 21 -19 38 -28 30 -15 31 -15 18 0 -11 14 -11 18 2 23 9 3 24 1 36
-5 11 -6 30 -11 44 -11 13 0 45 -7 71 -16 45 -16 46 -17 30 -35 -16 -17 -16
-19 2 -25 11 -4 23 -9 28 -12 5 -3 6 0 2 6 -4 7 -15 12 -24 13 -13 0 -12 3 6
11 12 6 22 14 22 18 0 4 -26 19 -58 32 -65 29 -97 57 -66 59 11 0 -4 6 -31 13
-56 13 -77 24 -71 34 2 4 -15 8 -38 9 l-41 2 35 -14z"/>
<path d="M1934 550 c-22 -9 -42 -30 -27 -30 4 0 16 7 26 15 11 7 28 12 38 10
11 -2 17 0 14 6 -7 11 -23 11 -51 -1z"/>
<path d="M1589 524 c14 -8 0 -44 -18 -45 -18 -1 -10 -4 33 -14 24 -5 27 -8 15
-16 -10 -7 -5 -8 16 -3 39 9 47 13 39 25 -3 6 -20 9 -37 7 -28 -3 -32 0 -32
21 0 14 -6 26 -13 27 -7 1 -8 0 -3 -2z"/>
<path d="M2223 507 c-16 -9 -20 -16 -13 -27 7 -10 10 -11 10 -2 0 6 6 12 14
12 17 0 30 16 19 23 -5 3 -18 0 -30 -6z"/>
<path d="M2939 500 c18 -9 29 -19 25 -23 -4 -4 4 -7 17 -7 24 1 24 1 4 16 -11
8 -19 19 -18 23 1 4 -12 8 -29 8 l-30 0 31 -17z"/>
<path d="M2015 500 c-3 -5 3 -10 15 -10 11 0 23 -7 26 -15 4 -10 19 -15 43
-15 l36 1 -39 14 c-21 7 -43 18 -49 24 -14 14 -24 14 -32 1z"/>
<path d="M2633 497 c-3 -6 -1 -7 4 -4 14 9 47 -29 38 -42 -3 -7 3 -11 16 -11
22 0 22 0 3 21 -14 16 -15 22 -5 28 9 6 3 10 -18 13 -18 3 -35 0 -38 -5z"/>
<path d="M2574 459 c-16 -17 -16 -22 -4 -29 23 -15 34 -12 20 5 -17 21 13 32
46 17 28 -13 32 -5 7 14 -26 19 -47 17 -69 -7z"/>
<path d="M2149 439 c-9 -5 -10 -9 -2 -9 6 0 15 -9 18 -20 4 -11 15 -20 26 -20
11 0 17 5 14 10 -4 6 -11 7 -17 4 -6 -4 -8 1 -4 14 8 23 -13 35 -35 21z"/>
<path d="M2314 434 c3 -9 6 -18 6 -20 0 -3 5 -2 10 1 6 3 10 1 10 -4 0 -6 7
-11 16 -11 8 0 13 4 10 9 -4 5 0 12 6 15 7 3 3 3 -10 0 -15 -4 -24 0 -28 10
-3 9 -11 16 -16 16 -6 0 -7 -7 -4 -16z"/>
<path d="M1612 415 c-7 -8 -22 -15 -32 -15 -25 0 -21 -23 5 -31 11 -3 19 -11
18 -17 -2 -7 8 -14 22 -18 23 -6 30 -19 26 -51 -2 -16 4 -16 30 -3 24 13 25
40 2 40 -10 0 -26 7 -36 14 -18 14 -18 14 0 19 12 3 10 5 -8 6 -45 2 -46 50
-1 51 6 0 12 5 12 10 0 15 -23 11 -38 -5z"/>
<path d="M1738 408 c6 -25 19 -31 48 -24 23 6 23 8 9 22 -8 9 -26 17 -39 18
-18 2 -22 -1 -18 -16z"/>
<path d="M2865 410 c11 -12 22 -17 29 -11 6 4 18 10 26 13 10 3 8 6 -8 10 -12
4 -20 2 -17 -2 3 -5 1 -11 -4 -14 -5 -3 -11 1 -15 9 -3 8 -11 15 -17 15 -7 0
-5 -8 6 -20z"/>
<path d="M2530 405 c7 -8 19 -15 26 -15 18 0 18 -9 -3 -32 -15 -17 -15 -19 3
-33 10 -8 23 -15 28 -15 6 0 2 6 -9 13 -26 20 -10 37 28 31 l32 -6 -25 18
c-14 10 -27 20 -30 23 -7 8 -49 31 -56 31 -4 0 -1 -7 6 -15z"/>
<path d="M2650 404 c0 -3 5 -15 11 -26 9 -16 8 -23 -2 -29 -10 -6 -8 -9 7 -9
24 0 114 -37 114 -47 0 -3 -8 -12 -17 -19 -17 -13 -17 -13 0 -14 9 0 17 5 17
11 0 11 28 9 63 -6 10 -4 17 -3 17 4 0 6 -8 11 -18 11 -10 0 -39 13 -64 29
-25 16 -55 32 -67 36 -12 3 -28 20 -36 36 -14 27 -25 37 -25 23z"/>
<path d="M2780 401 c0 -4 -10 -12 -22 -18 -21 -9 -17 -13 45 -43 68 -32 99
-63 74 -73 -6 -3 -1 -6 13 -6 14 -1 43 -10 65 -21 46 -24 51 -24 36 -7 -6 8
-29 19 -52 26 -31 9 -44 20 -52 42 -6 16 -17 29 -25 29 -15 0 -92 38 -92 46 0
2 10 8 22 13 18 6 19 9 5 14 -10 4 -17 3 -17 -2z"/>
<path d="M2917 385 c3 -9 19 -23 35 -31 28 -14 28 -14 16 6 -7 11 -18 20 -25
20 -7 0 -13 5 -13 10 0 6 -4 10 -10 10 -5 0 -7 -7 -3 -15z"/>
<path d="M1677 373 c-4 -3 -7 -11 -7 -16 0 -6 3 -7 7 -4 3 4 11 -1 18 -9 9
-14 16 -14 34 -5 23 13 19 36 -5 27 -7 -3 -16 -1 -19 4 -7 12 -19 13 -28 3z"/>
<path d="M2986 325 c-4 -12 -16 -14 -52 -11 -25 3 -44 2 -40 -1 3 -3 19 -7 36
-8 17 -2 40 -11 50 -20 11 -10 20 -13 20 -7 0 6 -5 14 -10 17 -8 5 -7 11 1 21
6 8 10 17 7 20 -3 3 -8 -2 -12 -11z"/>
<path d="M1907 310 c10 -11 21 -20 25 -20 5 0 8 9 8 20 0 15 -7 20 -25 20 -24
0 -24 -1 -8 -20z"/>
<path d="M1552 280 c-10 -17 -10 -20 3 -20 9 0 12 -6 9 -17 -5 -16 -5 -17 5
-1 6 9 8 25 3 37 -7 21 -7 21 -20 1z"/>
<path d="M2005 272 c-35 -12 -25 -27 20 -28 41 -1 42 -1 24 17 -11 11 -20 19
-21 18 -2 -1 -12 -4 -23 -7z"/>
<path d="M1607 233 c-4 -3 -7 -10 -7 -14 0 -11 80 -102 80 -92 0 4 5 1 10 -7
5 -8 10 -10 10 -3 0 17 43 3 59 -20 13 -18 15 -18 23 -3 7 13 13 14 23 6 9 -8
14 -7 18 3 6 15 -29 21 -39 6 -4 -6 -12 -5 -23 5 -9 8 -29 16 -44 18 -36 5
-109 72 -101 93 6 16 2 20 -9 8z"/>
<path d="M1880 222 c0 -19 30 -41 73 -53 23 -6 45 -13 50 -16 4 -2 7 -2 7 1 0
9 -54 33 -66 29 -6 -2 -23 8 -37 23 -15 15 -27 22 -27 16z"/>
<path d="M1330 198 c0 -4 4 -18 10 -32 6 -16 6 -27 0 -31 -6 -4 -10 -13 -10
-21 0 -12 4 -12 20 -4 25 13 25 21 0 62 -11 18 -20 30 -20 26z"/>
<path d="M1370 179 c0 -6 5 -19 11 -31 9 -16 6 -25 -13 -45 l-23 -26 23 12
c12 7 27 9 32 6 6 -3 10 -1 10 4 0 6 -4 11 -8 11 -7 0 -11 18 -13 63 0 18 -19
25 -19 6z"/>
<path d="M2070 162 c0 -7 -9 -12 -20 -12 -30 0 -24 -24 15 -63 19 -19 35 -31
35 -25 0 5 -13 21 -30 35 -33 27 -38 43 -16 43 17 0 31 18 22 27 -3 4 -6 1 -6
-5z"/>
<path d="M1929 138 c-1 -7 -1 -18 0 -25 1 -7 -8 -10 -21 -7 -13 2 -16 1 -8 -2
8 -4 23 -11 32 -16 15 -7 17 -5 9 14 -4 13 -6 29 -4 36 3 6 2 12 -1 12 -3 0
-7 -6 -7 -12z"/>
<path d="M200 112 c-14 -2 -28 -9 -32 -16 -6 -8 -8 -8 -8 2 0 6 -10 12 -22 12
-21 -1 -21 -2 6 -16 26 -15 27 -16 10 -29 -11 -7 -28 -15 -39 -18 -15 -3 -13
-5 8 -6 16 0 26 -5 22 -11 -4 -6 2 -7 17 -1 13 4 33 7 46 5 12 -2 22 1 22 6 0
6 -19 10 -42 10 -31 0 -39 3 -28 10 8 5 15 15 15 22 0 7 12 14 28 15 22 1 27
-2 27 -20 0 -17 2 -19 9 -8 13 20 51 22 51 2 1 -11 5 -9 14 7 l12 23 12 -23
c8 -18 11 -19 11 -5 1 11 10 17 29 18 21 1 19 3 -13 9 -21 4 -57 5 -78 2 -22
-3 -42 -1 -46 4 -3 5 -17 8 -31 6z"/>
<path d="M2130 69 c-13 -9 -13 -10 0 -8 34 3 41 -1 35 -21 -8 -24 8 -26 26 -3
10 11 10 14 2 9 -8 -4 -13 -2 -13 7 0 8 -7 18 -16 21 -19 7 -16 8 -34 -5z"/>
<path d="M353 63 c5 -8 -8 -11 -45 -11 -51 -1 -68 -11 -68 -41 0 -8 3 -11 8
-7 4 4 7 13 7 18 0 7 23 12 57 12 64 1 76 7 51 27 -9 8 -14 9 -10 2z"/>
</g>
</svg>
