<svg width="65" height="63" viewBox="0 0 65 63" fill="none" xmlns="http://www.w3.org/2000/svg">
<rect width="65" height="63" fill="#2F304C"/>
<path d="M46.7378 17.165C46.2907 16.8429 45.774 16.6307 45.2296 16.5456C44.6852 16.4605 44.1284 16.505 43.6044 16.6754C42.2222 17.0641 40.7905 17.2488 39.3549 17.2238C37.2332 17.1086 35.1529 16.5902 33.2253 15.6963C30.844 14.5949 28.2682 13.976 25.6465 13.875C19.9869 13.875 17.8132 15.8333 17.4215 16.1075C17.2341 16.2912 17.0855 16.5106 16.9846 16.7529C16.8837 16.9951 16.8325 17.2551 16.834 17.5175V47.1667C16.834 47.6861 17.0403 48.1842 17.4076 48.5514C17.7749 48.9187 18.273 49.125 18.7924 49.125C19.3117 49.125 19.8098 48.9187 20.1771 48.5514C20.5444 48.1842 20.7507 47.6861 20.7507 47.1667V38.7458C22.3111 38.1484 23.977 37.8752 25.6465 37.9429C27.7682 38.0581 29.8485 38.5765 31.7761 39.4704C34.1574 40.5717 36.7332 41.1907 39.3549 41.2917C41.7156 41.3808 44.0641 40.9111 46.209 39.9208C46.7871 39.6493 47.2773 39.2207 47.6235 38.684C47.9698 38.1473 48.1582 37.5241 48.1674 36.8854V19.9654C48.1667 19.419 48.0368 18.8805 47.7883 18.3938C47.5399 17.9071 47.1799 17.4861 46.7378 17.165Z" fill="white"/>
</svg>
